<?xml version="1.0" encoding="utf-8"?>
<!-- Generator: Adobe Illustrator 18.1.0, SVG Export Plug-In . SVG Version: 6.00 Build 0)  -->
<svg version="1.1" baseProfile="tiny" id="Layer_1" xmlns="http://www.w3.org/2000/svg" xmlns:xlink="http://www.w3.org/1999/xlink"
	 x="0px" y="0px" viewBox="0 0 1280 800" xml:space="preserve">
<g>
	<path fill="#AF3312" d="M686.7,254c57,26.2,101.7,77,109.4,141.7c1.5,10.8,3.1,23.1,3.1,33.9c-1.5,10.8-1.5,21.6-3.1,32.3
		c-3.1,7.7-4.6,15.4-6.2,23.1c-7.7,24.6-18.5,46.2-33.9,67.8c-7.7,12.3-16.9,20-26.2,30.8c-4.6,3.1-7.7,7.7-13.9,10.8
		c-1.5,1.5-1.5,3.1-3.1,4.6c-6.2,4.6-12.3,9.2-18.5,13.9c-7.7,4.6-13.9,7.7-21.6,12.3c27.7-40.1,40.1-100.1,1.5-137.1
		c-26.2-24.6-61.6-30.8-92.4-47.8c-7.7-4.6-15.4-9.2-23.1-13.9c-21.6-15.4-37-32.3-50.8-53.9c-1.5-4.6-4.6-9.2-7.7-13.9
		c-16.9-35.4-21.6-73.9-16.9-112.5c1.5-16.9,9.2-30.8,12.3-46.2c3.1-13.9,10.8-23.1,18.5-35.4c10.8-20,24.6-37,41.6-52.4
		c6.2-6.2,12.3-10.8,20-16.9c10.8-7.7,20-13.9,30.8-20c-18.5,33.9-33.9,75.5-16.9,112.5c4.6,7.7,7.7,15.4,13.9,21.6
		c6.2,6.2,13.9,12.3,21.6,16.9C645.1,237.1,666.7,244.8,686.7,254L686.7,254z"/>
	<path fill="#E0CCA9" d="M606.6,75.3c-10.8,6.2-20,12.3-30.8,20c-7.7,6.2-13.9,10.8-20,16.9c-0.9,0.8-1.7,1.6-2.6,2.4
		c2.3-0.6,5.7-1.5,9.8-3c-0.6,7.5-0.1,12.6-0.1,12.6s5.4-1.6,12.6-5.3c0.2,8.7,1.5,14.6,1.5,14.6s3.3-1.4,8.1-4.4
		C589.3,110.3,597.6,91.9,606.6,75.3z"/>
</g>
<path fill="#AE2917" d="M617.1,626c-45.8-18-51.2-57.7-32.4-97.3c17.9-39.6,60-79.3,88.4-97.2c28.4,17.9,70.5,57.6,88.4,97.2
	c18.8,39.6,13.4,79.2-32.4,97.2C691.8,626,654.5,626,617.1,626z"/>
<g>
	<path fill="#D4582A" d="M626,523c-3.1,62.7,26.4,112.2,20.4,116.9c-4.6,6-54.2-41.4-56-118.3c-1.3-37.5,10.8-70.4,24-90.9
		c13.3-20.9,27.7-29.3,32-25.9C656.1,412.2,627,460.6,626,523z"/>
	<path fill="#463E37" d="M629.1,569.4c-2.9-2-4.9-2.9-4.9-2.9s-1.6,4.3-2.7,10.9c-5.4-3.1-9.4-4.5-9.4-4.5s-1.1,4.5-1.4,11.2
		c-3.6-1.6-6.7-2.7-8.8-3.3c15.4,40.9,41.2,63.4,44.5,59.1C650.8,636.5,636,608.7,629.1,569.4z"/>
</g>
<g>
	<path fill="#D4582A" d="M723.7,523c3.1,62.7-26.4,112.2-20.4,116.9c4.6,6,54.2-41.4,56-118.3c1.3-37.5-10.8-70.4-24-90.9
		c-13.3-20.9-27.7-29.3-32-25.9C693.6,412.2,722.7,460.6,723.7,523z"/>
	<path fill="#463E37" d="M720.6,569.4c2.9-2,4.9-2.9,4.9-2.9s1.6,4.3,2.7,10.9c5.4-3.1,9.4-4.5,9.4-4.5s1.1,4.5,1.4,11.2
		c3.6-1.6,6.7-2.7,8.8-3.3c-15.4,40.9-41.2,63.4-44.5,59.1C698.9,636.5,713.7,608.7,720.6,569.4z"/>
</g>
<path fill="#E0CCA9" d="M755.1,399c26.7,60-34.7,135.7-83.5,195.7c-31.4-39.4-70.1-85.5-83.9-129.4c-7.4-23.1-8.3-45.3,0.4-66.3
	C643.7,399,699.4,399,755.1,399z"/>
<g>
	<path fill="#D4582A" d="M711.2,277.9c-3.9-12,17-29.9,30.3-61.9c25.3,15.1,46.2,53,30.3,88.1C751.6,295.4,731.4,286.6,711.2,277.9z
		"/>
	<path fill="#B2421F" d="M726.6,284.1c-1.9-5.9,8.3-14.6,14.8-30.3c12.4,7.4,22.6,26,14.8,43.2C746.4,292.7,736.5,288.4,726.6,284.1
		z"/>
</g>
<g>
	<path fill="#D4582A" d="M574.4,302.1c-15.9-35.1,5-73,30.3-88.1c13.3,32,34.2,49.9,30.3,61.9C614.8,284.6,594.6,293.4,574.4,302.1z
		"/>
	<path fill="#B2421F" d="M590.5,294.7c-7.5-16.5,2.4-34.3,14.3-41.5c6.3,15.1,16.1,23.5,14.3,29.1
		C609.5,286.5,600,290.6,590.5,294.7z"/>
</g>
<g>
	<path fill="#E0CCA9" d="M585.4,404.1c1.7-2.7,4.3-4.5,6.6-5.1c1.1-0.3,2.2-0.3,3.2-0.1c0.9,0.2,1.7,0.7,2.3,1.4
		c0.6,0.7,0.9,1.5,1.1,2.4c0.2,0.9,0.2,1.8,0.1,2.8c-0.2,1.9-0.9,3.9-2.2,5.8c-0.6,1-2.7,3.5-5,7.5c-2.3,4-4.7,9.4-6.9,14.9
		c-2.1,5.5-3.9,10.9-5,15.1c-0.6,2.1-1,3.8-1.3,5c-0.3,1.2-0.4,1.9-0.4,1.9s0-0.7-0.1-1.9c-0.1-1.2-0.2-3-0.2-5.2
		c-0.1-4.3,0-10.2,0.6-16.3c0.6-6.1,1.5-12.3,3-17.6C582.5,409.5,584.5,405.5,585.4,404.1z"/>
</g>
<g>
	<path fill="#E0CCA9" d="M747.8,411.4c-1.3-1.9-2-3.9-2.2-5.8c-0.1-1-0.1-1.9,0.1-2.8c0.2-0.9,0.5-1.7,1.1-2.4
		c0.6-0.7,1.4-1.2,2.3-1.4c0.9-0.2,2-0.2,3.2,0.1c2.3,0.6,4.8,2.4,6.6,5.1c0.9,1.3,2.9,5.3,4.3,10.6c1.5,5.2,2.4,11.5,3,17.6
		c0.6,6.1,0.7,12,0.6,16.3c0,2.2-0.1,4-0.2,5.2c-0.1,1.2-0.1,1.9-0.1,1.9s-0.2-0.7-0.4-1.9c-0.3-1.2-0.7-2.9-1.3-5
		c-1.1-4.1-2.9-9.6-5-15.1c-2.1-5.5-4.6-10.9-6.9-14.9C750.5,414.9,748.5,412.3,747.8,411.4z"/>
</g>
<g>
	<path fill="#E0CCA9" d="M737.5,474.1c-0.2-2.3,0.1-4.3,0.7-6.2c0.4-0.9,0.8-1.8,1.4-2.5c0.6-0.7,1.3-1.3,2.1-1.7s1.7-0.4,2.7-0.2
		c0.9,0.2,1.9,0.7,2.8,1.6c1.8,1.6,3.2,4.4,3.5,7.6c0.2,1.6,0.1,6.1-1.1,11.3c-1.1,5.3-3.2,11.3-5.5,17c-2.3,5.7-4.9,10.9-7,14.8
		c-1,1.9-1.9,3.5-2.6,4.5c-0.6,1.1-1,1.7-1,1.7s0.2-0.7,0.5-1.9c0.3-1.2,0.7-2.9,1.1-5c0.9-4.2,1.9-9.9,2.5-15.7
		c0.6-5.8,1-11.8,0.8-16.4C738.3,478.4,737.6,475.2,737.5,474.1z"/>
</g>
<path fill="#E9DAC2" d="M782.1,311c41.2,39.7-73.5,151.1-110.2,190.8C635.2,462.1,520.5,350.7,561.7,311
	C635.2,311,708.6,311,782.1,311z"/>
<path fill="#E9DAC2" d="M812.2,387.7c0.4,0.3-21.6,7.1-48.6,15.3c-27.5,8-59.9,17.4-92.4,17.6c-32.4-0.2-64.9-9.6-92.4-17.6
	c-27-8.2-49-15.1-48.6-15.3c0.5,0.3,8.4-20.9,32-43.4c23-22.3,61.8-45.9,109-45.7c47.2-0.3,86,23.4,109,45.7
	C803.8,366.8,811.7,387.9,812.2,387.7z"/>
<path fill="#D4582A" d="M782.1,311c-31.1,33.2-74.2,112-110.2,190.8c-36-78.8-79-157.6-110.2-190.8
	C622.6,250.2,721.2,250.2,782.1,311z"/>
<circle fill="#463E37" cx="738.1" cy="399" r="7.5"/>
<circle fill="#463E37" cx="671.1" cy="502" r="5.5"/>
<circle fill="#463E37" cx="605.1" cy="399" r="7.5"/>
<path fill="url(#Jive)" d="M783.9,523.6"/>
<path fill="url(#Jive)" d="M739.4,481.8"/>
<g>
	<path fill="#E0CCA9" d="M591.2,472.8c0.3-3.2,1.7-6,3.5-7.6c0.9-0.8,1.8-1.3,2.8-1.6c0.9-0.2,1.8-0.2,2.7,0.2
		c0.8,0.4,1.5,0.9,2.1,1.7c0.6,0.7,1,1.6,1.4,2.5c0.7,1.8,1,3.9,0.7,6.2c-0.1,1.1-0.8,4.3-1,8.9c-0.2,4.6,0.2,10.6,0.8,16.4
		c0.6,5.8,1.6,11.5,2.5,15.7c0.4,2.1,0.9,3.8,1.1,5c0.3,1.2,0.5,1.9,0.5,1.9s-0.4-0.6-1-1.7c-0.6-1.1-1.5-2.6-2.6-4.5
		c-2.1-3.8-4.7-9.1-7-14.8c-2.3-5.7-4.4-11.6-5.5-17C591.1,478.8,591,474.3,591.2,472.8z"/>
</g>
<g>
	<path fill="none" stroke="#E8A78E" stroke-miterlimit="10" d="M621.7,301.7"/>
</g>
<g>
	<path fill="none" stroke="#D7E2F2" stroke-linecap="round" stroke-linejoin="round" d="M662.1,302.2"/>
</g>
<g>
	<path fill="none" stroke="#FF4D4D" stroke-miterlimit="10" d="M681.8,225.4"/>
</g>
</svg>
